<svg width="80" height="80" viewBox="0 0 80 80" fill="none" xmlns="http://www.w3.org/2000/svg">
<path d="M36.3865 3.15378C38.4567 1.34695 41.5433 1.34695 43.6135 3.15378C45.1503 4.49508 47.3037 4.87477 49.2066 4.13999C51.7699 3.15018 54.6703 4.20586 55.9977 6.61178C56.9831 8.39781 58.8767 9.49109 60.9162 9.45144C63.6635 9.39804 66.0279 11.3821 66.4524 14.0969C66.7675 16.1122 68.173 17.7872 70.103 18.4475C72.7029 19.3369 74.2462 22.01 73.7165 24.7063C73.3233 26.7079 74.0712 28.7626 75.659 30.0431C77.7978 31.7681 78.3338 34.8078 76.9139 37.1603C75.8599 38.9067 75.8599 41.0933 76.9139 42.8397C78.3338 45.1922 77.7978 48.2319 75.659 49.9569C74.0712 51.2374 73.3233 53.2921 73.7165 55.2937C74.2462 57.99 72.7029 60.6631 70.103 61.5525C68.173 62.2128 66.7675 63.8878 66.4524 65.9031C66.0279 68.6179 63.6635 70.602 60.9162 70.5486C58.8767 70.5089 56.9831 71.6022 55.9977 73.3882C54.6703 75.7941 51.7699 76.8498 49.2066 75.86C47.3037 75.1252 45.1503 75.5049 43.6135 76.8462C41.5433 78.653 38.4567 78.653 36.3865 76.8462C34.8497 75.5049 32.6963 75.1252 30.7934 75.86C28.2301 76.8498 25.3297 75.7941 24.0023 73.3882C23.0169 71.6022 21.1233 70.5089 19.0838 70.5486C16.3365 70.602 13.9721 68.6179 13.5476 65.9031C13.2325 63.8878 11.827 62.2128 9.897 61.5525C7.29713 60.6631 5.75383 57.99 6.28349 55.2937C6.67668 53.2921 5.92883 51.2374 4.34104 49.9569C2.20217 48.2319 1.66619 45.1922 3.08608 42.8397C4.14014 41.0933 4.14014 38.9067 3.08608 37.1603C1.66619 34.8078 2.20217 31.7681 4.34104 30.0431C5.92883 28.7626 6.67668 26.7079 6.28348 24.7063C5.75383 22.01 7.29713 19.3369 9.89699 18.4475C11.827 17.7872 13.2325 16.1122 13.5476 14.0969C13.9721 11.3821 16.3365 9.39804 19.0838 9.45144C21.1233 9.49109 23.0169 8.39781 24.0023 6.61178C25.3297 4.20586 28.2301 3.15018 30.7934 4.13999C32.6963 4.87477 34.8497 4.49508 36.3865 3.15378Z" fill="#F7D3A8"/>
<circle cx="40" cy="40" r="29.25" stroke="white" stroke-width="1.5"/>
<path d="M40 42.5H41.25C42.625 42.5 43.75 41.375 43.75 40V27.5H32.5C30.625 27.5 28.9875 28.5375 28.1375 30.0625" stroke="white" stroke-width="1.5" stroke-linecap="round" stroke-linejoin="round"/>
<path d="M27.5 46.25C27.5 48.325 29.175 50 31.25 50H32.5C32.5 48.625 33.625 47.5 35 47.5C36.375 47.5 37.5 48.625 37.5 50H42.5C42.5 48.625 43.625 47.5 45 47.5C46.375 47.5 47.5 48.625 47.5 50H48.75C50.825 50 52.5 48.325 52.5 46.25V42.5H48.75C48.0625 42.5 47.5 41.9375 47.5 41.25V37.5C47.5 36.8125 48.0625 36.25 48.75 36.25H50.3625L48.225 32.5125C47.775 31.7375 46.95 31.25 46.05 31.25H43.75V40C43.75 41.375 42.625 42.5 41.25 42.5H40" stroke="white" stroke-width="1.5" stroke-linecap="round" stroke-linejoin="round"/>
<path d="M35 52.5C36.3807 52.5 37.5 51.3807 37.5 50C37.5 48.6193 36.3807 47.5 35 47.5C33.6193 47.5 32.5 48.6193 32.5 50C32.5 51.3807 33.6193 52.5 35 52.5Z" stroke="white" stroke-width="1.5" stroke-linecap="round" stroke-linejoin="round"/>
<path d="M45 52.5C46.3807 52.5 47.5 51.3807 47.5 50C47.5 48.6193 46.3807 47.5 45 47.5C43.6193 47.5 42.5 48.6193 42.5 50C42.5 51.3807 43.6193 52.5 45 52.5Z" stroke="white" stroke-width="1.5" stroke-linecap="round" stroke-linejoin="round"/>
<path d="M52.5 40V42.5H48.75C48.0625 42.5 47.5 41.9375 47.5 41.25V37.5C47.5 36.8125 48.0625 36.25 48.75 36.25H50.3625L52.5 40Z" stroke="white" stroke-width="1.5" stroke-linecap="round" stroke-linejoin="round"/>
<path d="M27.5 35H35" stroke="white" stroke-width="1.5" stroke-linecap="round" stroke-linejoin="round"/>
<path d="M27.5 38.75H32.5" stroke="white" stroke-width="1.5" stroke-linecap="round" stroke-linejoin="round"/>
<path d="M27.5 42.5H30" stroke="white" stroke-width="1.5" stroke-linecap="round" stroke-linejoin="round"/>
</svg>
