<svg width="80" height="80" viewBox="0 0 80 80" fill="none" xmlns="http://www.w3.org/2000/svg">
<path d="M36.3865 3.15378C38.4567 1.34695 41.5433 1.34695 43.6135 3.15378C45.1503 4.49508 47.3037 4.87477 49.2066 4.13999C51.7699 3.15018 54.6703 4.20586 55.9977 6.61178C56.9831 8.39781 58.8767 9.49109 60.9162 9.45144C63.6635 9.39804 66.0279 11.3821 66.4524 14.0969C66.7675 16.1122 68.173 17.7872 70.103 18.4475C72.7029 19.3369 74.2462 22.01 73.7165 24.7063C73.3233 26.7079 74.0712 28.7626 75.659 30.0431C77.7978 31.7681 78.3338 34.8078 76.9139 37.1603C75.8599 38.9067 75.8599 41.0933 76.9139 42.8397C78.3338 45.1922 77.7978 48.2319 75.659 49.9569C74.0712 51.2374 73.3233 53.2921 73.7165 55.2937C74.2462 57.99 72.7029 60.6631 70.103 61.5525C68.173 62.2128 66.7675 63.8878 66.4524 65.9031C66.0279 68.6179 63.6635 70.602 60.9162 70.5486C58.8767 70.5089 56.9831 71.6022 55.9977 73.3882C54.6703 75.7941 51.7699 76.8498 49.2066 75.86C47.3037 75.1252 45.1503 75.5049 43.6135 76.8462C41.5433 78.653 38.4567 78.653 36.3865 76.8462C34.8497 75.5049 32.6963 75.1252 30.7934 75.86C28.2301 76.8498 25.3297 75.7941 24.0023 73.3882C23.0169 71.6022 21.1233 70.5089 19.0838 70.5486C16.3365 70.602 13.9721 68.6179 13.5476 65.9031C13.2325 63.8878 11.827 62.2128 9.897 61.5525C7.29713 60.6631 5.75383 57.99 6.28349 55.2937C6.67668 53.2921 5.92883 51.2374 4.34104 49.9569C2.20217 48.2319 1.66619 45.1922 3.08608 42.8397C4.14014 41.0933 4.14014 38.9067 3.08608 37.1603C1.66619 34.8078 2.20217 31.7681 4.34104 30.0431C5.92883 28.7626 6.67668 26.7079 6.28348 24.7063C5.75383 22.01 7.29713 19.3369 9.89699 18.4475C11.827 17.7872 13.2325 16.1122 13.5476 14.0969C13.9721 11.3821 16.3365 9.39804 19.0838 9.45144C21.1233 9.49109 23.0169 8.39781 24.0023 6.61178C25.3297 4.20586 28.2301 3.15018 30.7934 4.13999C32.6963 4.87477 34.8497 4.49508 36.3865 3.15378Z" fill="#F9C1C4"/>
<circle cx="40" cy="40" r="29.25" stroke="white" stroke-width="1.5"/>
<path d="M48.75 36.25C48.75 41.0825 44.8325 45 40 45C35.1675 45 31.25 41.0825 31.25 36.25C31.25 31.4175 35.1675 27.5 40 27.5C44.8325 27.5 48.75 31.4175 48.75 36.25Z" stroke="white" stroke-width="1.5" stroke-linecap="round" stroke-linejoin="round"/>
<path d="M41.25 45L44.375 52.5L46.25 48.125L50 48.75L46.875 41.875" stroke="white" stroke-width="1.5" stroke-linecap="round" stroke-linejoin="round"/>
<path d="M38.75 45L35.625 52.5L33.75 48.125L30 48.75L33.125 41.875" stroke="white" stroke-width="1.5" stroke-linecap="round" stroke-linejoin="round"/>
<path d="M39.5858 31.5154C39.7583 31.1619 40.2418 31.1619 40.4143 31.5154L41.4311 33.5998C41.4986 33.7381 41.6254 33.8344 41.7723 33.8588L43.9828 34.2266C44.3574 34.2889 44.5068 34.7685 44.2388 35.049L42.6563 36.7065C42.5515 36.8163 42.5031 36.9717 42.5263 37.1249L42.875 39.438C42.9341 39.8298 42.5431 40.1263 42.2048 39.9463L40.211 38.8854C40.0785 38.8148 39.9215 38.8148 39.789 38.8854L37.7953 39.9463C37.4569 40.1263 37.0659 39.8298 37.1249 39.438L37.4738 37.1249C37.4969 36.9717 37.4485 36.8163 37.3437 36.7065L35.7612 35.049C35.4933 34.7685 35.6426 34.2889 36.0173 34.2266L38.2278 33.8588C38.3746 33.8344 38.5014 33.7381 38.5689 33.5998L39.5858 31.5154Z" stroke="white" stroke-width="1.5" stroke-linecap="round" stroke-linejoin="round"/>
</svg>
